<svg xmlns="http://www.w3.org/2000/svg" xmlns:xlink="http://www.w3.org/1999/xlink" width="500" zoomAndPan="magnify" viewBox="0 0 375 374.999991" height="500" preserveAspectRatio="xMidYMid meet" version="1.0"><defs><g/><clipPath id="dac7ed6ade"><path d="M 37.5 142 L 128.25 142 L 128.25 232.75 L 37.5 232.75 Z M 37.5 142 " clip-rule="nonzero"/></clipPath></defs><path fill="#100f0d" d="M 66.820312 184.609375 C 65.953125 183.742188 65.953125 182.328125 66.828125 181.457031 C 67.695312 180.589844 69.105469 180.589844 69.972656 181.457031 C 70.847656 182.328125 70.847656 183.742188 69.972656 184.609375 C 69.105469 185.476562 67.695312 185.476562 66.820312 184.609375 Z M 95.984375 184.609375 C 95.109375 183.742188 95.109375 182.328125 95.984375 181.457031 C 96.851562 180.589844 98.257812 180.589844 99.128906 181.457031 C 100.003906 182.328125 100.003906 183.742188 99.128906 184.609375 C 98.257812 185.476562 96.851562 185.476562 95.984375 184.609375 Z M 91.363281 211.972656 L 91.363281 197.808594 L 97.558594 197.808594 C 98.417969 197.808594 99.152344 197.019531 99.152344 196.152344 L 99.152344 188.144531 C 99.988281 187.890625 100.742188 187.429688 101.355469 186.8125 C 103.445312 184.722656 103.445312 181.335938 101.34375 179.246094 C 99.253906 177.15625 95.863281 177.164062 93.773438 179.257812 C 91.691406 181.347656 91.691406 184.730469 93.773438 186.8125 L 93.796875 186.8125 C 94.425781 187.429688 95.195312 187.890625 96.03125 188.144531 L 96.03125 194.691406 L 89.84375 194.691406 C 88.972656 194.691406 88.234375 195.292969 88.234375 196.152344 L 88.234375 212.832031 C 87.019531 213.089844 85.785156 213.257812 84.539062 213.332031 L 84.539062 177.976562 C 87.367188 177.117188 88.957031 174.128906 88.097656 171.304688 C 87.238281 168.476562 84.246094 166.886719 81.417969 167.746094 C 78.589844 168.605469 76.996094 171.59375 77.859375 174.425781 C 78.378906 176.128906 79.714844 177.464844 81.417969 177.976562 L 81.417969 213.332031 C 80.171875 213.257812 78.933594 213.089844 77.710938 212.832031 L 77.710938 196.152344 C 77.710938 195.292969 76.972656 194.691406 76.113281 194.691406 L 69.921875 194.691406 L 69.921875 188.144531 C 70.757812 187.890625 71.53125 187.429688 72.160156 186.8125 L 72.175781 186.8125 C 74.257812 184.722656 74.25 181.335938 72.160156 179.257812 C 70.066406 177.175781 66.683594 177.183594 64.601562 179.273438 C 62.519531 181.363281 62.519531 184.730469 64.601562 186.8125 C 65.222656 187.429688 65.96875 187.890625 66.804688 188.144531 L 66.804688 196.152344 C 66.804688 197.019531 67.535156 197.808594 68.394531 197.808594 L 74.59375 197.808594 L 74.59375 211.972656 C 64.464844 208.46875 57.101562 198.8125 57.101562 187.480469 C 57.101562 173.195312 68.710938 161.578125 82.984375 161.578125 C 97.269531 161.578125 108.863281 173.195312 108.863281 187.480469 C 108.863281 198.8125 101.492188 208.46875 91.363281 211.972656 Z M 81.402344 174.441406 C 80.535156 173.574219 80.535156 172.167969 81.402344 171.289062 C 82.269531 170.421875 83.683594 170.421875 84.554688 171.289062 C 85.421875 172.167969 85.421875 173.574219 84.554688 174.441406 C 83.683594 175.316406 82.269531 175.316406 81.402344 174.441406 Z M 82.976562 158.46875 C 66.980469 158.46875 53.960938 171.484375 53.960938 187.480469 C 53.960938 203.484375 66.980469 216.496094 82.976562 216.496094 C 98.980469 216.496094 111.988281 203.484375 111.988281 187.480469 C 111.988281 171.476562 98.980469 158.46875 82.976562 158.46875 " fill-opacity="1" fill-rule="nonzero"/><g clip-path="url(#dac7ed6ade)"><path fill="#100f0d" d="M 120.96875 207.960938 L 114.851562 207.777344 C 114.320312 207.761719 113.804688 208.023438 113.515625 208.476562 C 111.320312 211.761719 108.570312 214.640625 105.398438 216.996094 C 104.960938 217.316406 104.730469 217.832031 104.769531 218.363281 L 105.210938 224.480469 L 95.339844 228.796875 L 91.105469 224.382812 C 90.742188 224.003906 90.21875 223.835938 89.707031 223.925781 C 85.800781 224.648438 81.804688 224.746094 77.875 224.238281 C 77.359375 224.167969 76.835938 224.367188 76.492188 224.761719 L 72.542969 229.34375 L 62.503906 225.46875 L 62.679688 219.351562 C 62.695312 218.820312 62.433594 218.304688 61.988281 218.007812 C 58.695312 215.824219 55.816406 213.074219 53.460938 209.898438 C 53.148438 209.464844 52.625 209.230469 52.09375 209.269531 L 45.976562 209.714844 L 41.660156 199.84375 L 46.074219 195.605469 C 46.453125 195.246094 46.621094 194.722656 46.53125 194.207031 C 45.808594 190.300781 45.710938 186.304688 46.21875 182.375 C 46.289062 181.859375 46.089844 181.335938 45.695312 180.992188 L 41.113281 177.046875 L 44.988281 166.996094 L 51.105469 167.183594 C 51.636719 167.199219 52.152344 166.933594 52.449219 166.484375 C 54.632812 163.195312 57.382812 160.308594 60.558594 157.960938 C 60.992188 157.648438 61.226562 157.125 61.195312 156.597656 L 60.742188 150.480469 L 70.613281 146.160156 L 74.851562 150.574219 C 75.210938 150.953125 75.742188 151.121094 76.257812 151.023438 C 80.15625 150.316406 84.152344 150.214844 88.082031 150.71875 C 88.605469 150.792969 89.121094 150.589844 89.464844 150.195312 L 93.417969 145.617188 L 103.460938 149.488281 L 103.273438 155.605469 C 103.257812 156.136719 103.523438 156.652344 103.972656 156.949219 C 107.261719 159.136719 110.148438 161.886719 112.496094 165.058594 C 112.808594 165.496094 113.332031 165.726562 113.859375 165.695312 L 119.976562 165.246094 L 124.304688 175.117188 L 119.882812 179.351562 C 119.503906 179.714844 119.335938 180.238281 119.433594 180.757812 C 120.148438 184.65625 120.242188 188.652344 119.738281 192.582031 C 119.671875 193.097656 119.867188 193.621094 120.261719 193.964844 L 124.839844 197.914062 Z M 122.929688 192.148438 C 123.332031 188.445312 123.242188 184.707031 122.640625 181.023438 L 127.246094 176.609375 C 127.710938 176.160156 127.847656 175.460938 127.589844 174.867188 L 122.390625 162.976562 C 122.125 162.375 121.503906 162.003906 120.847656 162.054688 L 114.480469 162.519531 C 112.199219 159.570312 109.480469 156.980469 106.417969 154.84375 L 106.601562 148.476562 C 106.625 147.816406 106.226562 147.214844 105.605469 146.980469 L 93.515625 142.3125 C 92.898438 142.070312 92.199219 142.246094 91.773438 142.746094 L 87.648438 147.527344 C 83.941406 147.125 80.203125 147.222656 76.523438 147.816406 L 72.109375 143.21875 C 71.660156 142.746094 70.960938 142.609375 70.367188 142.867188 L 58.476562 148.066406 C 57.875 148.332031 57.503906 148.953125 57.550781 149.609375 L 58.019531 155.976562 C 55.070312 158.269531 52.480469 160.984375 50.34375 164.039062 L 43.976562 163.855469 C 43.316406 163.832031 42.714844 164.230469 42.480469 164.851562 L 37.808594 176.949219 C 37.578125 177.558594 37.746094 178.257812 38.246094 178.683594 L 43.027344 182.816406 C 42.625 186.515625 42.722656 190.253906 43.316406 193.933594 L 38.71875 198.347656 C 38.246094 198.796875 38.109375 199.496094 38.363281 200.089844 L 43.566406 211.980469 C 43.832031 212.582031 44.449219 212.953125 45.109375 212.90625 L 51.476562 212.4375 C 53.765625 215.386719 56.484375 217.976562 59.539062 220.113281 L 59.351562 226.472656 C 59.328125 227.140625 59.730469 227.734375 60.351562 227.976562 L 72.449219 232.648438 C 73.058594 232.878906 73.757812 232.710938 74.183594 232.210938 L 78.316406 227.429688 C 82.011719 227.832031 85.75 227.734375 89.433594 227.140625 L 93.847656 231.746094 C 94.296875 232.210938 94.996094 232.355469 95.589844 232.09375 L 107.480469 226.890625 C 108.082031 226.625 108.453125 226.007812 108.402344 225.347656 L 107.9375 218.980469 C 110.886719 216.691406 113.476562 213.972656 115.613281 210.917969 L 121.980469 211.105469 C 122.640625 211.128906 123.242188 210.726562 123.476562 210.105469 L 128.144531 198.007812 C 128.386719 197.398438 128.210938 196.699219 127.710938 196.273438 L 122.929688 192.148438 " fill-opacity="1" fill-rule="nonzero"/></g><g fill="#000000" fill-opacity="1"><g transform="translate(136.426731, 181.949988)"><g><path d="M 22.46875 0 L 19.515625 0 L 19.5 -14.125 L 13.53125 -1.96875 L 11.453125 -1.96875 L 5.484375 -14.125 L 5.484375 0 L 2.484375 0 L 2.484375 -18.90625 L 6.265625 -18.90625 L 12.5 -6.34375 L 18.71875 -18.90625 L 22.46875 -18.90625 Z M 22.46875 0 "/></g></g></g><g fill="#000000" fill-opacity="1"><g transform="translate(161.401743, 181.949988)"><g><path d="M 15.984375 -16.03125 L 5.671875 -16.03125 L 5.671875 -10.9375 L 14.90625 -10.9375 L 14.90625 -8.078125 L 5.671875 -8.078125 L 5.671875 -2.859375 L 16.3125 -2.859375 L 16.3125 0 L 2.484375 0 L 2.484375 -18.90625 L 15.984375 -18.90625 Z M 15.984375 -16.03125 "/></g></g></g><g fill="#000000" fill-opacity="1"><g transform="translate(179.113752, 181.949988)"><g><path d="M 10.859375 -18.984375 C 12.191406 -18.984375 13.488281 -18.722656 14.75 -18.203125 C 16.019531 -17.691406 17.113281 -16.976562 18.03125 -16.0625 L 16.171875 -13.75 C 15.484375 -14.476562 14.671875 -15.054688 13.734375 -15.484375 C 12.804688 -15.921875 11.863281 -16.140625 10.90625 -16.140625 C 9.019531 -16.140625 7.421875 -15.492188 6.109375 -14.203125 C 4.804688 -12.921875 4.15625 -11.351562 4.15625 -9.5 C 4.15625 -7.632812 4.804688 -6.054688 6.109375 -4.765625 C 7.421875 -3.472656 9.019531 -2.828125 10.90625 -2.828125 C 12.863281 -2.828125 14.617188 -3.578125 16.171875 -5.078125 L 18.0625 -2.96875 C 17.09375 -2.007812 15.957031 -1.25 14.65625 -0.6875 C 13.363281 -0.132812 12.0625 0.140625 10.75 0.140625 C 7.976562 0.140625 5.644531 -0.78125 3.75 -2.625 C 1.863281 -4.476562 0.921875 -6.765625 0.921875 -9.484375 C 0.921875 -12.160156 1.878906 -14.410156 3.796875 -16.234375 C 5.710938 -18.066406 8.066406 -18.984375 10.859375 -18.984375 Z M 10.859375 -18.984375 "/></g></g></g><g fill="#000000" fill-opacity="1"><g transform="translate(197.932758, 181.949988)"><g><path d="M 18.875 0 L 15.6875 0 L 15.6875 -7.828125 L 5.671875 -7.828125 L 5.671875 0 L 2.484375 0 L 2.484375 -18.90625 L 5.671875 -18.90625 L 5.671875 -10.6875 L 15.6875 -10.6875 L 15.6875 -18.90625 L 18.875 -18.90625 Z M 18.875 0 "/></g></g></g><g fill="#000000" fill-opacity="1"><g transform="translate(219.289766, 181.949988)"><g><path d="M 14.6875 -4.265625 L 5.15625 -4.265625 L 3.34375 0 L 0.03125 0 L 8.375 -18.90625 L 11.640625 -18.90625 L 19.90625 0 L 16.5 0 Z M 13.46875 -7.09375 L 9.90625 -15.5 L 6.34375 -7.09375 Z M 13.46875 -7.09375 "/></g></g></g><g fill="#000000" fill-opacity="1"><g transform="translate(239.215771, 181.949988)"><g><path d="M 15.390625 -16.03125 L 9.390625 -16.03125 L 9.390625 0 L 6.203125 0 L 6.203125 -16.03125 L 0.25 -16.03125 L 0.25 -18.90625 L 15.390625 -18.90625 Z M 15.390625 -16.03125 "/></g></g></g><g fill="#000000" fill-opacity="1"><g transform="translate(254.848777, 181.949988)"><g><path d="M 3.8125 -16.234375 C 5.738281 -18.066406 8.113281 -18.984375 10.9375 -18.984375 C 13.757812 -18.984375 16.132812 -18.066406 18.0625 -16.234375 C 19.988281 -14.410156 20.953125 -12.148438 20.953125 -9.453125 C 20.953125 -6.753906 19.988281 -4.476562 18.0625 -2.625 C 16.132812 -0.78125 13.757812 0.140625 10.9375 0.140625 C 8.113281 0.140625 5.738281 -0.78125 3.8125 -2.625 C 1.882812 -4.476562 0.921875 -6.753906 0.921875 -9.453125 C 0.921875 -12.148438 1.882812 -14.410156 3.8125 -16.234375 Z M 10.96875 -16.125 C 9.09375 -16.125 7.488281 -15.476562 6.15625 -14.1875 C 4.820312 -12.90625 4.15625 -11.328125 4.15625 -9.453125 C 4.15625 -7.578125 4.828125 -5.988281 6.171875 -4.6875 C 7.515625 -3.382812 9.113281 -2.734375 10.96875 -2.734375 C 12.820312 -2.734375 14.40625 -3.382812 15.71875 -4.6875 C 17.03125 -5.988281 17.6875 -7.578125 17.6875 -9.453125 C 17.6875 -11.328125 17.03125 -12.90625 15.71875 -14.1875 C 14.40625 -15.476562 12.820312 -16.125 10.96875 -16.125 Z M 10.96875 -16.125 "/></g></g></g><g fill="#000000" fill-opacity="1"><g transform="translate(276.718778, 181.949988)"><g><path d="M 18.875 0 L 15.734375 0 L 5.671875 -13.546875 L 5.671875 0 L 2.484375 0 L 2.484375 -18.90625 L 5.609375 -18.90625 L 15.734375 -5.3125 L 15.734375 -18.90625 L 18.875 -18.90625 Z M 18.875 0 "/></g></g></g><g fill="#000000" fill-opacity="1"><g transform="translate(298.102784, 181.949988)"><g><path d="M 5.671875 0 L 2.484375 0 L 2.484375 -18.90625 L 5.671875 -18.90625 Z M 5.671875 0 "/></g></g></g><g fill="#000000" fill-opacity="1"><g transform="translate(306.25679, 181.949988)"><g><path d="M 10.859375 -18.984375 C 12.191406 -18.984375 13.488281 -18.722656 14.75 -18.203125 C 16.019531 -17.691406 17.113281 -16.976562 18.03125 -16.0625 L 16.171875 -13.75 C 15.484375 -14.476562 14.671875 -15.054688 13.734375 -15.484375 C 12.804688 -15.921875 11.863281 -16.140625 10.90625 -16.140625 C 9.019531 -16.140625 7.421875 -15.492188 6.109375 -14.203125 C 4.804688 -12.921875 4.15625 -11.351562 4.15625 -9.5 C 4.15625 -7.632812 4.804688 -6.054688 6.109375 -4.765625 C 7.421875 -3.472656 9.019531 -2.828125 10.90625 -2.828125 C 12.863281 -2.828125 14.617188 -3.578125 16.171875 -5.078125 L 18.0625 -2.96875 C 17.09375 -2.007812 15.957031 -1.25 14.65625 -0.6875 C 13.363281 -0.132812 12.0625 0.140625 10.75 0.140625 C 7.976562 0.140625 5.644531 -0.78125 3.75 -2.625 C 1.863281 -4.476562 0.921875 -6.765625 0.921875 -9.484375 C 0.921875 -12.160156 1.878906 -14.410156 3.796875 -16.234375 C 5.710938 -18.066406 8.066406 -18.984375 10.859375 -18.984375 Z M 10.859375 -18.984375 "/></g></g></g><g fill="#000000" fill-opacity="1"><g transform="translate(171.419716, 200.373692)"><g><path d="M 8.15625 -8.171875 L 2.890625 -8.171875 L 2.890625 -5.578125 L 7.59375 -5.578125 L 7.59375 -4.109375 L 2.890625 -4.109375 L 2.890625 -1.453125 L 8.3125 -1.453125 L 8.3125 0 L 1.265625 0 L 1.265625 -9.640625 L 8.15625 -9.640625 Z M 8.15625 -8.171875 "/></g></g></g><g fill="#000000" fill-opacity="1"><g transform="translate(181.94498, 200.373692)"><g><path d="M 9.625 0 L 8.03125 0 L 2.890625 -6.90625 L 2.890625 0 L 1.265625 0 L 1.265625 -9.640625 L 2.859375 -9.640625 L 8.03125 -2.71875 L 8.03125 -9.640625 L 9.625 -9.640625 Z M 9.625 0 "/></g></g></g><g fill="#000000" fill-opacity="1"><g transform="translate(194.341297, 200.373692)"><g><path d="M 7.859375 -4.734375 L 9.28125 -4.734375 L 9.28125 -1.1875 C 8.78125 -0.8125 8.191406 -0.507812 7.515625 -0.28125 C 6.847656 -0.0507812 6.1875 0.0625 5.53125 0.0625 C 4.113281 0.0625 2.914062 -0.40625 1.9375 -1.34375 C 0.957031 -2.28125 0.46875 -3.4375 0.46875 -4.8125 C 0.46875 -6.1875 0.960938 -7.335938 1.953125 -8.265625 C 2.941406 -9.203125 4.164062 -9.671875 5.625 -9.671875 C 6.3125 -9.671875 6.984375 -9.550781 7.640625 -9.3125 C 8.296875 -9.070312 8.859375 -8.742188 9.328125 -8.328125 L 8.40625 -7.125 C 7.625 -7.863281 6.695312 -8.234375 5.625 -8.234375 C 4.644531 -8.234375 3.816406 -7.898438 3.140625 -7.234375 C 2.460938 -6.578125 2.125 -5.769531 2.125 -4.8125 C 2.125 -3.851562 2.460938 -3.039062 3.140625 -2.375 C 3.828125 -1.71875 4.660156 -1.390625 5.640625 -1.390625 C 6.390625 -1.390625 7.128906 -1.609375 7.859375 -2.046875 Z M 7.859375 -4.734375 "/></g></g></g><g fill="#000000" fill-opacity="1"><g transform="translate(206.146034, 200.373692)"><g><path d="M 2.890625 0 L 1.265625 0 L 1.265625 -9.640625 L 2.890625 -9.640625 Z M 2.890625 0 "/></g></g></g><g fill="#000000" fill-opacity="1"><g transform="translate(211.801048, 200.373692)"><g><path d="M 9.625 0 L 8.03125 0 L 2.890625 -6.90625 L 2.890625 0 L 1.265625 0 L 1.265625 -9.640625 L 2.859375 -9.640625 L 8.03125 -2.71875 L 8.03125 -9.640625 L 9.625 -9.640625 Z M 9.625 0 "/></g></g></g><g fill="#000000" fill-opacity="1"><g transform="translate(224.197368, 200.373692)"><g><path d="M 8.15625 -8.171875 L 2.890625 -8.171875 L 2.890625 -5.578125 L 7.59375 -5.578125 L 7.59375 -4.109375 L 2.890625 -4.109375 L 2.890625 -1.453125 L 8.3125 -1.453125 L 8.3125 0 L 1.265625 0 L 1.265625 -9.640625 L 8.15625 -9.640625 Z M 8.15625 -8.171875 "/></g></g></g><g fill="#000000" fill-opacity="1"><g transform="translate(234.72263, 200.373692)"><g><path d="M 8.15625 -8.171875 L 2.890625 -8.171875 L 2.890625 -5.578125 L 7.59375 -5.578125 L 7.59375 -4.109375 L 2.890625 -4.109375 L 2.890625 -1.453125 L 8.3125 -1.453125 L 8.3125 0 L 1.265625 0 L 1.265625 -9.640625 L 8.15625 -9.640625 Z M 8.15625 -8.171875 "/></g></g></g><g fill="#000000" fill-opacity="1"><g transform="translate(245.247892, 200.373692)"><g><path d="M 7.375 0 L 5.609375 -2.921875 C 5.523438 -2.910156 5.378906 -2.90625 5.171875 -2.90625 L 2.890625 -2.90625 L 2.890625 0 L 1.265625 0 L 1.265625 -9.640625 L 5.171875 -9.640625 C 6.398438 -9.640625 7.351562 -9.351562 8.03125 -8.78125 C 8.71875 -8.207031 9.0625 -7.394531 9.0625 -6.34375 C 9.0625 -5.570312 8.890625 -4.921875 8.546875 -4.390625 C 8.203125 -3.859375 7.707031 -3.46875 7.0625 -3.21875 L 9.21875 0 Z M 2.890625 -4.359375 L 5.171875 -4.359375 C 6.734375 -4.359375 7.515625 -5.003906 7.515625 -6.296875 C 7.515625 -7.546875 6.734375 -8.171875 5.171875 -8.171875 L 2.890625 -8.171875 Z M 2.890625 -4.359375 "/></g></g></g><g fill="#000000" fill-opacity="1"><g transform="translate(256.694919, 200.373692)"><g><path d="M 2.890625 0 L 1.265625 0 L 1.265625 -9.640625 L 2.890625 -9.640625 Z M 2.890625 0 "/></g></g></g><g fill="#000000" fill-opacity="1"><g transform="translate(262.34993, 200.373692)"><g><path d="M 9.625 0 L 8.03125 0 L 2.890625 -6.90625 L 2.890625 0 L 1.265625 0 L 1.265625 -9.640625 L 2.859375 -9.640625 L 8.03125 -2.71875 L 8.03125 -9.640625 L 9.625 -9.640625 Z M 9.625 0 "/></g></g></g><g fill="#000000" fill-opacity="1"><g transform="translate(274.74625, 200.373692)"><g><path d="M 7.859375 -4.734375 L 9.28125 -4.734375 L 9.28125 -1.1875 C 8.78125 -0.8125 8.191406 -0.507812 7.515625 -0.28125 C 6.847656 -0.0507812 6.1875 0.0625 5.53125 0.0625 C 4.113281 0.0625 2.914062 -0.40625 1.9375 -1.34375 C 0.957031 -2.28125 0.46875 -3.4375 0.46875 -4.8125 C 0.46875 -6.1875 0.960938 -7.335938 1.953125 -8.265625 C 2.941406 -9.203125 4.164062 -9.671875 5.625 -9.671875 C 6.3125 -9.671875 6.984375 -9.550781 7.640625 -9.3125 C 8.296875 -9.070312 8.859375 -8.742188 9.328125 -8.328125 L 8.40625 -7.125 C 7.625 -7.863281 6.695312 -8.234375 5.625 -8.234375 C 4.644531 -8.234375 3.816406 -7.898438 3.140625 -7.234375 C 2.460938 -6.578125 2.125 -5.769531 2.125 -4.8125 C 2.125 -3.851562 2.460938 -3.039062 3.140625 -2.375 C 3.828125 -1.71875 4.660156 -1.390625 5.640625 -1.390625 C 6.390625 -1.390625 7.128906 -1.609375 7.859375 -2.046875 Z M 7.859375 -4.734375 "/></g></g></g><g fill="#000000" fill-opacity="1"><g transform="translate(286.544712, 200.373692)"><g/></g></g></svg>