<svg xmlns="http://www.w3.org/2000/svg" xmlns:xlink="http://www.w3.org/1999/xlink" width="500" zoomAndPan="magnify" viewBox="0 0 375 374.999991" height="500" preserveAspectRatio="xMidYMid meet" version="1.0"><path fill="#100f0d" d="M 121.160156 176.066406 C 117.574219 172.480469 117.574219 166.632812 121.195312 163.046875 C 124.78125 159.457031 130.59375 159.457031 134.179688 163.046875 C 137.800781 166.632812 137.800781 172.480469 134.179688 176.066406 C 130.59375 179.652344 124.78125 179.652344 121.160156 176.066406 Z M 241.667969 176.066406 C 238.046875 172.480469 238.046875 166.632812 241.667969 163.046875 C 245.257812 159.457031 251.070312 159.457031 254.65625 163.046875 C 258.277344 166.632812 258.277344 172.480469 254.65625 176.066406 C 251.070312 179.652344 245.257812 179.652344 241.667969 176.066406 Z M 222.570312 289.136719 L 222.570312 230.609375 L 248.179688 230.609375 C 251.734375 230.609375 254.757812 227.351562 254.757812 223.765625 L 254.757812 190.683594 C 258.210938 189.621094 261.332031 187.726562 263.859375 185.167969 C 272.496094 176.53125 272.496094 162.546875 263.824219 153.910156 C 255.1875 145.273438 241.171875 145.308594 232.535156 153.945312 C 223.933594 162.582031 223.933594 176.566406 232.535156 185.167969 L 232.632812 185.167969 C 235.226562 187.726562 238.414062 189.621094 241.867188 190.683594 L 241.867188 217.71875 L 216.292969 217.71875 C 212.703125 217.71875 209.648438 220.210938 209.648438 223.765625 L 209.648438 292.691406 C 204.632812 293.753906 199.519531 294.449219 194.371094 294.75 L 194.371094 148.664062 C 206.0625 145.109375 212.636719 132.753906 209.085938 121.09375 C 205.53125 109.402344 193.171875 102.824219 181.480469 106.378906 C 169.789062 109.933594 163.210938 122.289062 166.765625 133.980469 C 168.925781 141.023438 174.4375 146.539062 181.480469 148.664062 L 181.480469 294.75 C 176.332031 294.449219 171.21875 293.753906 166.167969 292.691406 L 166.167969 223.765625 C 166.167969 220.210938 163.113281 217.71875 159.558594 217.71875 L 133.980469 217.71875 L 133.980469 190.683594 C 137.4375 189.621094 140.625 187.726562 143.214844 185.167969 L 143.28125 185.167969 C 151.886719 176.53125 151.851562 162.546875 143.214844 153.945312 C 134.578125 145.339844 120.59375 145.375 111.992188 154.011719 C 103.390625 162.648438 103.390625 176.566406 111.992188 185.167969 C 114.550781 187.726562 117.640625 189.621094 121.09375 190.683594 L 121.09375 223.765625 C 121.09375 227.351562 124.117188 230.609375 127.671875 230.609375 L 153.28125 230.609375 L 153.28125 289.136719 C 111.429688 274.652344 81 234.761719 81 187.925781 C 81 128.898438 128.964844 80.902344 187.957031 80.902344 C 246.984375 80.902344 294.882812 128.898438 294.882812 187.925781 C 294.882812 234.761719 264.421875 274.652344 222.570312 289.136719 Z M 181.414062 134.046875 C 177.828125 130.460938 177.828125 124.648438 181.414062 121.027344 C 185.003906 117.441406 190.847656 117.441406 194.4375 121.027344 C 198.023438 124.648438 198.023438 130.460938 194.4375 134.046875 C 190.847656 137.667969 185.003906 137.667969 181.414062 134.046875 Z M 187.925781 68.046875 C 121.824219 68.046875 68.015625 121.824219 68.015625 187.925781 C 68.015625 254.058594 121.824219 307.835938 187.925781 307.835938 C 254.058594 307.835938 307.804688 254.058594 307.804688 187.925781 C 307.804688 121.792969 254.058594 68.046875 187.925781 68.046875 " fill-opacity="1" fill-rule="nonzero"/><path fill="#100f0d" d="M 344.90625 272.5625 L 319.628906 271.796875 C 317.4375 271.730469 315.308594 272.828125 314.113281 274.6875 C 305.046875 288.273438 293.6875 300.164062 280.566406 309.894531 C 278.773438 311.222656 277.808594 313.351562 277.976562 315.542969 L 279.800781 340.820312 L 239.011719 358.65625 L 221.507812 340.421875 C 220.011719 338.859375 217.851562 338.164062 215.726562 338.527344 C 199.585938 341.519531 183.074219 341.917969 166.832031 339.824219 C 164.707031 339.523438 162.546875 340.355469 161.121094 341.984375 L 144.808594 360.917969 L 103.324219 344.90625 L 104.054688 319.628906 C 104.121094 317.4375 103.023438 315.308594 101.195312 314.082031 C 87.578125 305.046875 75.6875 293.6875 65.953125 280.566406 C 64.660156 278.773438 62.5 277.808594 60.308594 277.976562 L 35.03125 279.800781 L 17.191406 239.011719 L 35.429688 221.507812 C 36.988281 220.011719 37.6875 217.851562 37.320312 215.726562 C 34.332031 199.585938 33.933594 183.074219 36.027344 166.832031 C 36.324219 164.707031 35.496094 162.546875 33.867188 161.121094 L 14.933594 144.808594 L 30.945312 103.289062 L 56.222656 104.054688 C 58.414062 104.121094 60.539062 103.023438 61.769531 101.164062 C 70.804688 87.578125 82.164062 75.652344 95.285156 65.953125 C 97.078125 64.660156 98.042969 62.5 97.910156 60.308594 L 96.046875 35.03125 L 136.839844 17.191406 L 154.34375 35.429688 C 155.839844 36.988281 158.03125 37.6875 160.15625 37.289062 C 176.265625 34.367188 192.773438 33.933594 209.019531 36.027344 C 211.175781 36.324219 213.300781 35.496094 214.730469 33.867188 L 231.074219 14.933594 L 272.5625 30.945312 L 271.796875 56.222656 C 271.730469 58.414062 272.828125 60.539062 274.6875 61.769531 C 288.273438 70.804688 300.195312 82.164062 309.894531 95.285156 C 311.191406 97.078125 313.351562 98.042969 315.542969 97.910156 L 340.820312 96.046875 L 358.691406 136.839844 L 340.421875 154.34375 C 338.859375 155.839844 338.164062 157.996094 338.5625 160.15625 C 341.519531 176.265625 341.917969 192.773438 339.824219 209.019531 C 339.558594 211.144531 340.355469 213.300781 341.984375 214.730469 L 360.917969 231.039062 Z M 353.011719 207.222656 C 354.671875 191.910156 354.304688 176.464844 351.816406 161.253906 L 370.847656 143.015625 C 372.773438 141.15625 373.339844 138.265625 372.277344 135.808594 L 350.785156 86.679688 C 349.6875 84.191406 347.132812 82.664062 344.40625 82.863281 L 318.101562 84.789062 C 308.667969 72.597656 297.441406 61.902344 284.785156 53.066406 L 285.546875 26.757812 C 285.648438 24.035156 283.988281 21.542969 281.429688 20.582031 L 231.472656 1.28125 C 228.914062 0.285156 226.023438 1.015625 224.265625 3.074219 L 207.222656 22.839844 C 191.910156 21.179688 176.464844 21.578125 161.253906 24.035156 L 143.015625 5.035156 C 141.15625 3.074219 138.265625 2.511719 135.808594 3.574219 L 86.679688 25.066406 C 84.191406 26.160156 82.664062 28.71875 82.863281 31.441406 L 84.789062 57.75 C 72.597656 67.214844 61.902344 78.445312 53.066406 91.066406 L 26.757812 90.300781 C 24.035156 90.203125 21.542969 91.863281 20.582031 94.421875 L 1.28125 144.410156 C 0.320312 146.9375 1.015625 149.824219 3.074219 151.585938 L 22.839844 168.660156 C 21.179688 183.9375 21.578125 199.386719 24.035156 214.597656 L 5.035156 232.832031 C 3.074219 234.695312 2.511719 237.582031 3.574219 240.042969 L 25.066406 289.167969 C 26.160156 291.660156 28.71875 293.1875 31.441406 292.988281 L 57.75 291.0625 C 67.214844 303.253906 78.445312 313.949219 91.066406 322.785156 L 90.300781 349.058594 C 90.203125 351.816406 91.863281 354.273438 94.421875 355.269531 L 144.410156 374.566406 C 146.9375 375.53125 149.824219 374.832031 151.585938 372.773438 L 168.660156 353.011719 C 183.9375 354.671875 199.386719 354.273438 214.597656 351.816406 L 232.832031 370.847656 C 234.695312 372.773438 237.582031 373.371094 240.042969 372.277344 L 289.167969 350.785156 C 291.660156 349.6875 293.1875 347.132812 292.988281 344.40625 L 291.0625 318.101562 C 303.253906 308.632812 313.949219 297.40625 322.785156 284.785156 L 349.089844 285.546875 C 351.816406 285.648438 354.304688 283.988281 355.269531 281.429688 L 374.566406 231.4375 C 375.566406 228.914062 374.832031 226.023438 372.773438 224.265625 L 353.011719 207.222656 " fill-opacity="1" fill-rule="nonzero"/></svg>